<?xml version="1.0" encoding="utf-8"?>
<!-- Generator: Adobe Illustrator 27.8.1, SVG Export Plug-In . SVG Version: 6.00 Build 0)  -->
<svg version="1.1" id="圖層_1" xmlns="http://www.w3.org/2000/svg" xmlns:xlink="http://www.w3.org/1999/xlink" x="0px" y="0px"
	 viewBox="0 0 44 28" style="enable-background:new 0 0 44 28;" xml:space="preserve">
<g>
	<path d="M41,0H13.8c-0.3,0-0.6,0.1-0.8,0.3L0.3,13.2c-0.4,0.4-0.4,1.1,0,1.6L13,27.6c0.2,0.2,0.5,0.3,0.8,0.3H41c1.7,0,3-1.4,3-3V3
		C44,1.4,42.7,0,41,0z M41.8,3v21.9c0,0.4-0.4,0.8-0.8,0.8H14.3L2.7,14L14.3,2.3H41C41.4,2.3,41.8,2.6,41.8,3z"/>
	<path d="M33.5,6.9c-0.4-0.4-1.2-0.4-1.6,0l-5.5,5.5l-5.5-5.5c-0.4-0.4-1.2-0.4-1.6,0c-0.4,0.4-0.4,1.2,0,1.6l5.5,5.5l-5.5,5.5
		c-0.4,0.4-0.4,1.2,0,1.6c0.2,0.2,0.5,0.3,0.8,0.3c0.3,0,0.6-0.1,0.8-0.3l5.5-5.5l5.5,5.5c0.2,0.2,0.5,0.3,0.8,0.3s0.6-0.1,0.8-0.3
		c0.4-0.4,0.4-1.2,0-1.6L28,14l5.5-5.5C34,8,34,7.3,33.5,6.9z"/>
</g>
</svg>
