<?xml version="1.0" encoding="utf-8"?>
<!-- Generator: Adobe Illustrator 27.8.1, SVG Export Plug-In . SVG Version: 6.00 Build 0)  -->
<svg version="1.1" id="圖層_1" xmlns="http://www.w3.org/2000/svg" xmlns:xlink="http://www.w3.org/1999/xlink" x="0px" y="0px"
	 viewBox="0 0 274.5 62.2" style="enable-background:new 0 0 274.5 62.2;" xml:space="preserve">
<style type="text/css">
	.st0{fill:#FFF6DA;}
	.st1{fill:#F7F5B9;}
	.st2{fill:#BADDDD;}
	.st3{fill:#D2EAEA;}
	.st4{fill:url(#SVGID_1_);}
	.st5{fill:#B4DDDC;}
	.st6{fill:#E47632;}
	.st7{fill:#B9CB52;}
	.st8{fill:#D14B14;}
	.st9{fill:#4A7E3F;}
	.st10{font-family:'LiHeiPro';}
	.st11{font-size:26.0425px;}
	.st12{font-family:'ArialMT';}
	.st13{font-size:11.5737px;}
</style>
<g>
	
		<image style="overflow:visible;opacity:0.39;" width="295" height="288" xlink:href="B43292FF378EFEC1.png"  transform="matrix(0.24 0 0 0.24 -2.0073 -1.9384)">
	</image>
	<g>
		<g>
			<polygon class="st0" points="61.1,20.9 49.8,15.8 45.1,18.2 56,23.8 			"/>
			<polygon class="st1" points="54.3,22.1 45.1,17.1 41.4,20.5 48.6,25.2 			"/>
			<polygon class="st2" points="23,5.9 22.8,43.7 11.8,49.7 11.8,12.5 			"/>
			<polygon class="st3" points="34.6,12.1 22.9,18.5 34.6,24.1 46.6,17.7 			"/>
			<polygon class="st3" points="11.8,0 0,6.6 11.8,12.5 23,5.9 			"/>
			<linearGradient id="SVGID_1_" gradientUnits="userSpaceOnUse" x1="16.7958" y1="19.7932" x2="17.6665" y2="43.3016">
				<stop  offset="0" style="stop-color:#7BBDDD"/>
				<stop  offset="1" style="stop-color:#156DAD"/>
			</linearGradient>
			<polygon class="st4" points="0,6.6 0,43.8 11.8,49.7 11.8,38.3 22.9,43.6 22.9,56 34.6,62.2 34.6,24.1 22.9,18.5 22.9,29.8 
				11.8,25.1 11.8,12.5 			"/>
			<polygon class="st3" points="22.9,19.7 11.8,25.1 22.9,29.8 			"/>
			<polygon class="st5" points="34.6,24.1 34.6,62.2 63.7,46.6 63.7,35.6 46.6,45.3 46.6,17.7 			"/>
			<polygon class="st6" points="56,23.8 56,44.5 61.1,41.9 61.1,20.9 			"/>
			<polygon class="st7" points="54.3,22.1 54.3,44.2 48.6,47.5 48.6,25.2 			"/>
			<polygon class="st8" points="56,23.8 56,44.5 54.3,43.7 54.3,23 			"/>
			<polygon class="st9" points="48.6,47.5 48.6,25.2 46.7,23.9 46.6,46.1 			"/>
		</g>
	</g>
</g>
<text transform="matrix(1 0 0 1 71.6617 31.0294)" class="st10 st11">凌網科技圖書館</text>
<text transform="matrix(1 0 0 1 75.297 53.7823)" class="st12 st13">HYWEB TECHNOLOGY LIBRARY</text>
</svg>
