<?xml version="1.0" encoding="utf-8"?>
<!-- Generator: Adobe Illustrator 27.8.1, SVG Export Plug-In . SVG Version: 6.00 Build 0)  -->
<svg version="1.1" id="圖層_1" xmlns="http://www.w3.org/2000/svg" xmlns:xlink="http://www.w3.org/1999/xlink" x="0px" y="0px"
	 viewBox="0 0 374.2 389.8" style="enable-background:new 0 0 374.2 389.8;" xml:space="preserve">
<g>
	<polygon points="0,155.9 0,171.5 0,187.1 0,202.7 0,218.3 0,233.9 15.6,233.9 15.6,249.5 31.2,249.5 31.2,265.1 46.8,265.1 
		46.8,249.5 46.8,233.9 31.2,233.9 31.2,218.3 15.6,218.3 15.6,202.7 15.6,187.1 15.6,171.5 31.2,171.5 31.2,155.9 15.6,155.9 	"/>
	<rect x="31.2" y="187.1" width="15.6" height="15.6"/>
	<polygon points="78,233.9 78,218.3 62.4,218.3 46.8,218.3 46.8,233.9 62.4,233.9 	"/>
	<polygon points="93.6,140.3 109.1,140.3 109.1,124.7 93.6,124.7 78,124.7 78,140.3 78,155.9 93.6,155.9 	"/>
	<polygon points="93.6,171.5 78,171.5 78,155.9 62.4,155.9 62.4,140.3 62.4,124.7 46.8,124.7 31.2,124.7 31.2,140.3 31.2,155.9 
		46.8,155.9 46.8,171.5 46.8,187.1 62.4,187.1 62.4,202.7 78,202.7 93.6,202.7 93.6,187.1 	"/>
	<rect x="78" y="249.5" width="15.6" height="15.6"/>
	<rect x="93.6" y="155.9" width="15.6" height="15.6"/>
	<rect x="109.1" y="140.3" width="15.6" height="15.6"/>
	<polygon points="124.7,218.3 109.1,218.3 109.1,202.7 93.6,202.7 93.6,218.3 93.6,233.9 93.6,249.5 109.1,249.5 124.7,249.5 
		124.7,233.9 	"/>
	<polygon points="140.3,124.7 140.3,109.1 124.7,109.1 124.7,124.7 124.7,140.3 140.3,140.3 	"/>
	<rect x="124.7" y="296.3" width="15.6" height="15.6"/>
	<rect x="140.3" y="93.6" width="15.6" height="15.6"/>
	<polygon points="171.5,78 171.5,62.4 155.9,62.4 155.9,46.8 155.9,31.2 171.5,31.2 187.1,31.2 187.1,46.8 202.7,46.8 202.7,31.2 
		202.7,15.6 218.3,15.6 218.3,0 202.7,0 187.1,0 187.1,15.6 171.5,15.6 171.5,0 155.9,0 155.9,15.6 140.3,15.6 140.3,0 124.7,0 
		124.7,15.6 124.7,31.2 140.3,31.2 140.3,46.8 124.7,46.8 124.7,62.4 140.3,62.4 140.3,78 155.9,78 155.9,93.6 171.5,93.6 	"/>
	<rect x="155.9" y="171.5" width="15.6" height="15.6"/>
	<rect x="155.9" y="296.3" width="15.6" height="15.6"/>
	<polygon points="187.1,187.1 171.5,187.1 171.5,202.7 155.9,202.7 155.9,187.1 140.3,187.1 140.3,171.5 155.9,171.5 155.9,155.9 
		155.9,140.3 140.3,140.3 140.3,155.9 124.7,155.9 124.7,171.5 124.7,187.1 109.1,187.1 109.1,202.7 124.7,202.7 140.3,202.7 
		140.3,218.3 140.3,233.9 140.3,249.5 124.7,249.5 124.7,265.1 140.3,265.1 155.9,265.1 171.5,265.1 171.5,280.7 171.5,296.3 
		187.1,296.3 187.1,311.9 202.7,311.9 218.3,311.9 218.3,296.3 202.7,296.3 202.7,280.7 187.1,280.7 187.1,265.1 187.1,249.5 
		187.1,233.9 202.7,233.9 202.7,218.3 202.7,202.7 187.1,202.7 	"/>
	<polygon points="187.1,358.6 187.1,343 202.7,343 202.7,327.4 187.1,327.4 171.5,327.4 171.5,343 155.9,343 155.9,327.4 
		140.3,327.4 124.7,327.4 124.7,343 124.7,358.6 124.7,374.2 124.7,389.8 140.3,389.8 140.3,374.2 155.9,374.2 155.9,358.6 
		171.5,358.6 171.5,374.2 171.5,389.8 187.1,389.8 202.7,389.8 202.7,374.2 187.1,374.2 	"/>
	<polygon points="202.7,358.6 202.7,374.2 218.3,374.2 218.3,389.8 233.9,389.8 233.9,374.2 233.9,358.6 218.3,358.6 	"/>
	<path d="M233.9,155.9h15.6v-15.6v-15.6v-15.6V93.6h-15.6h-15.6V78h15.6h15.6V62.4h-15.6V46.8h-15.6v15.6h-15.6V78v15.6h-15.6h-15.6
		v15.6v15.6v15.6v15.6h15.6h15.6h15.6v15.6h-15.6v15.6v15.6h15.6v-15.6h15.6h15.6v-15.6h-15.6V155.9z M233.9,109.1v15.6h-15.6v-15.6
		H233.9z M187.1,140.3v-15.6h15.6v15.6H187.1z"/>
	<polygon points="218.3,233.9 233.9,233.9 233.9,218.3 233.9,202.7 218.3,202.7 218.3,218.3 	"/>
	<polygon points="233.9,280.7 233.9,265.1 218.3,265.1 202.7,265.1 202.7,280.7 218.3,280.7 	"/>
	<rect x="233.9" width="15.6" height="15.6"/>
	<rect x="249.5" y="265.1" width="15.6" height="15.6"/>
	<rect x="265.1" y="187.1" width="15.6" height="15.6"/>
	<polygon points="280.7,343 265.1,343 265.1,327.4 280.7,327.4 280.7,311.9 280.7,296.3 265.1,296.3 265.1,311.9 249.5,311.9 
		233.9,311.9 233.9,327.4 218.3,327.4 218.3,343 233.9,343 249.5,343 249.5,358.6 265.1,358.6 280.7,358.6 	"/>
	<rect x="280.7" y="265.1" width="15.6" height="15.6"/>
	<path d="M311.9,218.3h-15.6h-15.6h-15.6h-15.6v15.6v15.6h15.6h15.6v-15.6h15.6v15.6v15.6h15.6v15.6h15.6v-15.6H343v-15.6h15.6v15.6
		h15.6v-15.6v-15.6v-15.6h-15.6H343h-15.6v-15.6h-15.6V218.3z M327.4,249.5h-15.6v-15.6h15.6V249.5z"/>
	<polygon points="311.9,296.3 311.9,280.7 296.3,280.7 296.3,296.3 296.3,311.9 296.3,327.4 296.3,343 296.3,358.6 311.9,358.6 
		311.9,343 311.9,327.4 311.9,311.9 327.4,311.9 343,311.9 343,296.3 327.4,296.3 	"/>
	<rect x="327.4" y="187.1" width="15.6" height="15.6"/>
	<rect x="327.4" y="327.4" width="15.6" height="15.6"/>
	<polygon points="343,358.6 327.4,358.6 327.4,374.2 311.9,374.2 296.3,374.2 280.7,374.2 280.7,389.8 296.3,389.8 311.9,389.8 
		327.4,389.8 343,389.8 358.6,389.8 358.6,374.2 343,374.2 	"/>
	<polygon points="358.6,155.9 358.6,140.3 343,140.3 343,155.9 327.4,155.9 311.9,155.9 296.3,155.9 296.3,140.3 296.3,124.7 
		280.7,124.7 280.7,140.3 280.7,155.9 265.1,155.9 249.5,155.9 249.5,171.5 265.1,171.5 280.7,171.5 280.7,187.1 296.3,187.1 
		311.9,187.1 311.9,171.5 327.4,171.5 343,171.5 343,187.1 358.6,187.1 358.6,202.7 374.2,202.7 374.2,187.1 374.2,171.5 
		358.6,171.5 	"/>
	<polygon points="343,280.7 343,296.3 358.6,296.3 374.2,296.3 374.2,280.7 358.6,280.7 358.6,265.1 343,265.1 	"/>
	<rect x="343" y="311.9" width="15.6" height="15.6"/>
	<rect x="343" y="343" width="15.6" height="15.6"/>
	<rect x="358.6" y="327.4" width="15.6" height="15.6"/>
	<rect x="358.6" y="358.6" width="15.6" height="15.6"/>
	<path d="M109.1,0H0v109.1h109.1V0z M94.7,94.7H14.5V14.5h80.2V94.7z"/>
	<rect x="31.2" y="31.2" width="46.8" height="46.8"/>
	<path d="M0,389.8h109.1V280.7H0V389.8z M14.5,295.1h80.2v80.2H14.5V295.1z"/>
	<rect x="31.2" y="311.9" width="46.8" height="46.8"/>
	<path d="M265.1,0v109.1h109.1V0H265.1z M359.7,94.7h-80.2V14.5h80.2V94.7z"/>
	<rect x="296.3" y="31.2" width="46.8" height="46.8"/>
</g>
</svg>
